<svg width="14" height="17" viewBox="0 0 14 17" fill="none" xmlns="http://www.w3.org/2000/svg">
<path d="M4.60919 7.06186L3.46765 8.2034L5.6215 10.3572C5.77294 10.5085 5.97823 10.5935 6.19227 10.5935C6.40631 10.5935 6.61159 10.5085 6.76304 10.3572L10.8015 6.31878L9.65996 5.17725L6.19227 8.64494L4.60919 7.06186Z" fill="#1BBA86"/>
<path d="M7.53846 0.185769L7 0L6.46154 0.185769L1.07692 2.07038L0 2.45V8.93846C0.00204152 10.1442 0.351537 11.3238 1.00665 12.3361C1.66176 13.3484 2.59472 14.1504 3.69385 14.6462L6.33769 15.8362L7 16.135L7.66231 15.8362L10.3062 14.6462C11.4057 14.1502 12.3389 13.3478 12.9941 12.335C13.6492 11.3222 13.9985 10.142 14 8.93577V2.44731L12.9231 2.06769L7.53846 0.185769ZM12.3846 8.93577C12.3846 9.83109 12.1259 10.7073 11.6396 11.4591C11.1534 12.2109 10.4604 12.8062 9.64385 13.1735L7 14.3635L4.35615 13.1735C3.53963 12.8062 2.84658 12.2109 2.36036 11.4591C1.87414 10.7073 1.61544 9.83109 1.61538 8.93577V3.59423L7 1.70962L12.3846 3.59423V8.93577Z" fill="#1BBA86"/>
</svg>
