<svg width="71" height="14" viewBox="0 0 71 14" fill="none" xmlns="http://www.w3.org/2000/svg">
<rect width="13.1104" height="13.1104" rx="2" fill="#1BBA86"/>
<path d="M6.39121 1.96655L7.45822 5.25047H10.9111L8.11766 7.28005L9.18468 10.564L6.39121 8.53439L3.59774 10.564L4.66475 7.28005L1.87128 5.25047H5.3242L6.39121 1.96655Z" fill="white"/>
<rect x="14.4205" width="13.1104" height="13.1104" rx="2" fill="#1BBA86"/>
<path d="M20.8117 1.96655L21.8787 5.25047H25.3317L22.5382 7.28005L23.6052 10.564L20.8117 8.53439L18.0183 10.564L19.0853 7.28005L16.2918 5.25047H19.7447L20.8117 1.96655Z" fill="white"/>
<rect x="28.8423" width="13.1104" height="13.1104" rx="2" fill="#1BBA86"/>
<path d="M35.2334 1.96655L36.3004 5.25047H39.7533L36.9598 7.28005L38.0268 10.564L35.2334 8.53439L32.4399 10.564L33.5069 7.28005L30.7134 5.25047H34.1664L35.2334 1.96655Z" fill="white"/>
<rect x="43.2646" width="13.1104" height="13.1104" rx="2" fill="#1BBA86"/>
<path d="M49.6559 1.96655L50.7229 5.25047H54.1758L51.3823 7.28005L52.4493 10.564L49.6559 8.53439L46.8624 10.564L47.9294 7.28005L45.1359 5.25047H48.5888L49.6559 1.96655Z" fill="white"/>
<rect x="57.6871" width="13.1104" height="13.1104" rx="2" fill="#1BBA85"/>
<path d="M64.0783 1.96655L65.1453 5.25047H68.5983L65.8048 7.28005L66.8718 10.564L64.0783 8.53439L61.2849 10.564L62.3519 7.28005L59.5584 5.25047H63.0113L64.0783 1.96655Z" fill="white"/>
</svg>
