<svg width="99" height="19" viewBox="0 0 99 19" fill="none" xmlns="http://www.w3.org/2000/svg">
<rect y="0.12793" width="18.2741" height="18.2741" rx="2" fill="#1BBA86"/>
<path d="M8.90853 2.86914L10.3958 7.44645H15.2087L11.315 10.2754L12.8022 14.8527L8.90853 12.0238L5.01483 14.8527L6.50209 10.2754L2.6084 7.44645H7.42127L8.90853 2.86914Z" fill="white"/>
<rect x="20.1014" y="0.12793" width="18.2741" height="18.2741" rx="2" fill="#1BBA86"/>
<path d="M29.0102 2.86914L30.4975 7.44645H35.3103L31.4166 10.2754L32.9039 14.8527L29.0102 12.0238L25.1165 14.8527L26.6038 10.2754L22.7101 7.44645H27.523L29.0102 2.86914Z" fill="white"/>
<rect x="40.203" y="0.12793" width="18.2741" height="18.2741" rx="2" fill="#1BBA86"/>
<path d="M49.1114 2.86914L50.5987 7.44645H55.4115L51.5178 10.2754L53.0051 14.8527L49.1114 12.0238L45.2177 14.8527L46.705 10.2754L42.8113 7.44645H47.6242L49.1114 2.86914Z" fill="white"/>
<rect x="60.3047" y="0.12793" width="18.2741" height="18.2741" rx="2" fill="#1BBA86"/>
<path d="M69.2132 2.86914L70.7005 7.44645H75.5133L71.6197 10.2754L73.1069 14.8527L69.2132 12.0238L65.3195 14.8527L66.8068 10.2754L62.9131 7.44645H67.726L69.2132 2.86914Z" fill="white"/>
<rect x="80.4054" y="0.12793" width="18.2741" height="18.2741" rx="2" fill="#E5E5E5"/>
<path d="M80.3926 2C80.3926 0.895431 81.288 0 82.3926 0H93.6189V18.4019H82.3926C81.288 18.4019 80.3926 17.5064 80.3926 16.4019V2Z" fill="#1BBA85"/>
<path d="M89.314 2.86914L90.8013 7.44645H95.6142L91.7205 10.2754L93.2077 14.8527L89.314 12.0238L85.4204 14.8527L86.9076 10.2754L83.0139 7.44645H87.8268L89.314 2.86914Z" fill="white"/>
</svg>
